<?xml version="1.0" encoding="UTF-8"?>
<svg id="onepiece" xmlns="http://www.w3.org/2000/svg" xmlns:xlink="http://www.w3.org/1999/xlink" viewBox="0 0 591.42 209.21">
  <defs>
    <style>
      .cls-1 {
        stroke-width: 3.96px;
      }

      .cls-1, .cls-2, .cls-3, .cls-4, .cls-5, .cls-6, .cls-7, .cls-8, .cls-9, .cls-10, .cls-11, .cls-12, .cls-13, .cls-14, .cls-15, .cls-16, .cls-17, .cls-18, .cls-19, .cls-20, .cls-21 {
        stroke: #000;
      }

      .cls-1, .cls-10 {
        fill: #803300;
      }

      .cls-2 {
        fill: url(#linear-gradient-2);
        stroke-linecap: round;
      }

      .cls-2, .cls-3, .cls-4, .cls-6, .cls-7, .cls-8, .cls-14, .cls-16, .cls-19 {
        stroke-linejoin: round;
      }

      .cls-2, .cls-5, .cls-6, .cls-7, .cls-8, .cls-9, .cls-10, .cls-11, .cls-12, .cls-13, .cls-14, .cls-16, .cls-18, .cls-20 {
        stroke-width: 3.82px;
      }

      .cls-3 {
        stroke-width: 3.51px;
      }

      .cls-3, .cls-4, .cls-14, .cls-19, .cls-20 {
        fill: none;
      }

      .cls-4 {
        stroke-width: 4.27px;
      }

      .cls-5, .cls-16 {
        fill: rgba(192, 77, 0, 1);
      }

      .cls-6 {
        fill: #e30c0c;
      }

      .cls-7, .cls-13 {
        fill: #ffe01f;
      }

      .cls-8 {
        fill: url(#linear-gradient);
      }

      .cls-9 {
        fill: #9d3f00;
      }

      .cls-11, .cls-15 {
        fill: #fff;
      }

      .cls-12 {
        fill: #eb0000;
      }

      .cls-15 {
        stroke-width: 3.06px;
      }

      .cls-22 {
        font-family: ArialMT, Arial;
        font-size: 12.23px;
      }

      .cls-22, .cls-23 {
        isolation: isolate;
      }

      .cls-17 {
        stroke-width: 3.89px;
      }

      .cls-17, .cls-18 {
        fill: rgba(157, 63, 0, 1);
      }

      .cls-19 {
        stroke-width: 4.1px;
      }

      .cls-24 {
        stroke-width: 0px;
      }

      .cls-21 {
        fill: #000d82;
        stroke-width: 1.91px;
      }
    </style>
    <linearGradient id="linear-gradient" x1="367.98" y1="111.5" x2="367.98" y2="-76.5" gradientTransform="translate(-14.43 133.96) scale(.84 -.84)" gradientUnits="userSpaceOnUse">
      <stop offset="0" stop-color="#4abfff"/>
      <stop offset="1" stop-color="#0000cb"/>
    </linearGradient>
    <linearGradient id="linear-gradient-2" x1="363.55" y1="109.45" x2="363.55" y2="-80.4" gradientTransform="translate(-14.43 133.96) scale(.84 -.84)" gradientUnits="userSpaceOnUse">
      <stop offset="0" stop-color="#4abfff"/>
      <stop offset="1" stop-color="#0000cb"/>
    </linearGradient>
  </defs>
  <g id="g2273">
    <g id="g2275">
      <g id="g2732">
        <path id="rect2178" class="cls-8" d="m400.86,13.15c-2.5,0-4.52,2.01-4.52,4.52v.34c0,2.5,2.01,4.52,4.52,4.52h165.56c2.5,0,4.52-2.01,4.52-4.52v-.34c0-2.5-2.01-4.52-4.52-4.52h-165.56Zm-371.83.16c-2.5,0-4.52,2.01-4.52,4.52v.02c0,2.5,2.01,4.52,4.52,4.52h212.14c2.5,0,4.52-2.01,4.52-4.52v-.02c0-2.5-2.01-4.52-4.52-4.52H29.03Zm-2.9,164.81c-2.5,0-4.52,1.71-4.52,3.83s2.01,3.83,4.52,3.83h540.33c2.5,0,4.52-1.71,4.52-3.83s-2.01-3.83-4.52-3.83H26.12Z"/>
        <path id="path3892" class="cls-11" d="m158.78,14.24c-6.03.31-11.99,6.27-5.42,16.11l-24.56,23.91,9.09,11.01,24.4-25.04c16.06,9.14,22.26-16.04,4.8-15.61,1.11-7.44-3.62-10.62-8.31-10.38Zm-138.44,1.59c-4.33.24-8.31,3.48-7.28,10.38-17.46-.44-11.28,24.75,4.78,15.61l24.4,25.04,9.09-11.01-24.56-23.91c6.93-10.39-.1-16.45-6.43-16.11Zm21.25,125.62l-24.38,25.02c-16.06-9.14-22.26,16.06-4.8,15.62-2.54,17,25.41,11.75,13.73-5.75l24.54-23.91-9.09-10.99Zm96.3,1.27l-9.09,11.01,24.56,23.91c-11.68,17.49,16.28,22.73,13.73,5.73,17.46.44,11.26-24.77-4.8-15.63l-24.4-25.02Z"/>
        <path id="path3219" class="cls-21" d="m300.63,5.41h6.76c.03,1,.03,2.22,0,3.16.18,14.4-7.74,23.15-26.15,22.76v-6.54c11.67-.25,19.35-3.64,19.39-16.23.03-.99.05-2.05,0-3.16Z"/>
        <path id="path3221" class="cls-21" d="m309.09,2.02v23.57c.02,3.17,3.03,5.94,5.97,5.97h19.48v-6.25h-16.75c-1.11,0-1.44-.69-1.37-2.44v-9.01h18.69v-7.24h-2.58c-.42.81-1.26,1.37-2.24,1.37s-1.82-.56-2.24-1.37h-11.63V2.02h-7.32Z"/>
        <path id="rect3232" class="cls-21" d="m335.4,10.9v7.66h26.69v-7.66h-26.69Z"/>
        <path id="path3223" class="cls-21" d="m330.28.96c-2.46,0-4.46,2.03-4.46,4.52s2,4.5,4.46,4.5,4.46-2.01,4.46-4.5-2-4.52-4.46-4.52Zm0,1.94c1.4,0,2.54,1.16,2.54,2.58s-1.14,2.58-2.54,2.58-2.54-1.16-2.54-2.58,1.14-2.58,2.54-2.58Z"/>
        <path id="path2240" class="cls-21" d="m252.5,1.8v13.3h6.76v-6.31h12.06c.05,15.3-9.81,16.23-17.58,16.23v6.76c5.11,0,24.57.49,24.46-23-.01-2.36,0-4.63,0-6.99h-25.7Z"/>
        <path id="path3217" class="cls-21" d="m279.89,1.8v6.54h15.78V1.8h-15.78Z"/>
        <path id="path3237" class="cls-21" d="m364.33,3.9h20.49v6.38c.08,3.25-.82,5.7-1.91,8.05,1.83,3.42,4.04,5.69,6.3,6.77v6.85c-3.37-1.35-6.77-2.75-9.49-8.45-4.8,6.32-10.88,8.51-17.38,8.05v-6.54c1.13-.04,1.03.02,2.53,0,3.53,0,13.47-7.43,12.85-14.75h-13.39V3.9Z"/>
        <path id="path3567" class="cls-5" d="m181.93,177.43c3.16-2.41,40.7-21.97,66.28,0,17.55,15.07,31.34,8.79,31.34,8.79l19.39-.45c-12.69,8.03-27.79,19.36-58.39-3.16-11.21-8.25-26.16-11.18-41.48-5.18h-17.13Z"/>
        <path id="path3571" class="cls-20" d="m195.69,171.34c-.29.22.16-.82-.23,1.13"/>
        <path id="path3573" class="cls-20" d="m195.46,177.43l.45-5.64"/>
        <path id="path3575" class="cls-20" d="m203.35,168.41l.68,8.12"/>
        <path id="path3577" class="cls-20" d="m212.15,174.95l.45-7.44"/>
        <path id="path3579" class="cls-20" d="m220.04,167.28l-.68,7.21"/>
        <path id="path3583" class="cls-20" d="m230.86,168.18l-4.73,7.21"/>
        <path id="path3585" class="cls-20" d="m232.66,177.43l6.31-5.19"/>
        <path id="path3587" class="cls-20" d="m246.19,176.3l-6.76,4.51"/>
        <path id="path3589" class="cls-20" d="m248.44,187.57l7.21-5.64"/>
        <path id="path3593" class="cls-20" d="m263.1,193.43l5.41-6.09"/>
        <path id="path3595" class="cls-20" d="m274.59,186.89v9.24"/>
        <path id="path3599" class="cls-20" d="m283.39,185.77l-.45,7.21"/>
        <path id="path3430" class="cls-2" d="m548.99,31.19l4.07,4.74c-68.05,15.87-72.58,112.42-.46,131.67l-3.15,5.62,17.8-4.94-12.4-11.96-.69,6.09c-31.78-13.76-38.55-48.07-38.55-58.61h16.47v8.79c0,3.57,5.62,3.71,5.62,0v-8.35h5.18c1.64,9.05,12.96,12.89,18.55,6.4,1.88-2.18,3.11-5.53,3.11-10.23,0-5.11-1.41-8.71-3.51-10.98-5.68-6.15-16.42-2.56-17.9,7.15h-5.42v-7.88c0-4.2-5.62-3.76-5.62,0,0,2.6,0,7.66,0,7.66h-16.47c3.15-26.64,18.8-42.9,39.92-54.56v6.31l11.03-12.18-17.58-4.74Zm-459.46,2.04c-39.57,0-71.7,32.13-71.7,71.7s32.13,71.68,71.7,71.68,71.7-32.11,71.7-71.68-32.13-71.7-71.7-71.7Zm72.53,3.67c2.1,2.31,4.56,4.3,4.78,9.56,1.59,38.28,3.2,75.95-2.86,116.06-.5,3.28-3.46,6.23-6.07,6.69h27.74c-2.21-11.8-1.38-23.59.64-35.39,2.53,11.8,5.76,23.59,10.83,35.39h17.86c-4.94-54.25-1.46-126.8,1.92-132.31h-23.91c2.05,16.02-.22,21.41-1.29,29.64-2.44-8.16-4.51-13.82-4.78-29.64h-24.86Zm56.44,0c6.33,4.91,6.37,29.66,6.37,63.76s1.85,64.6-9.58,68.55h57.4v-23.97c-9.56,13.01-33.33,7.45-33.33-8.55s.16-32.85.16-32.85c12.53-3.13,19.57,6.19,22,10.85l-.32-28.37c-5.19,10.02-16.88,12.3-22,12.1,0,0,.21-26.16.32-31.56.45-20.88,31.07-21.04,33.49-3.83v-26.13h-54.52Zm71.1,0c1.41.62,2.62,4.71,3.11,9.26,1.28,11.99,1.35,32.35,1.35,56.73s-1.52,45.27-3.11,57.4c-.7,5.32-2.78,7.12-4.53,8.92h29.66c-7.26-2.03-6.45-32.33-6.22-36.82,10.94,0,30.15-4.77,30.15-19.16,0-17.25.28-30.79.28-50.21,0-14.79-7.45-26.13-22.12-26.13h-28.57Zm98.44,0c6.33,4.91,6.37,29.66,6.37,63.76s1.87,64.6-9.56,68.55h57.38v-23.97c-9.56,13.01-33.33,7.45-33.33-8.55v-32.85c11.69,0,19.75,7.15,22.18,11.81v-29.33c-5.19,10.02-11.79,12.1-22.18,12.1v-31.56c0-20.88,31.23-21.04,33.65-3.83v-26.13h-54.52Zm84,.32c-13.16.19-26.29,8.64-26.29,26.9v73.49c0,47.6,52.77,35.78,52.77,5.18v-27.94h-22.78c2.96,5.42,3.16,16.88,3.16,21.64,0,9.8-14.44,12.21-14.44-2.04v-64.02c-.23-14.98,14.21-12.32,14.21-6.77s2.12,18.75-2.48,22.56h22.32v-26.39c-.11-14.75-13.31-22.8-26.47-22.6Zm-162.18,13.59c3.33,0,14.83,1.68,14.83,10.61v42.38c0,15.05-11.46,13.97-14.83,13.97V50.81Zm243.21,43.98c2.35,0,4.25,2.43,4.25,5.4s-1.9,5.38-4.25,5.38-4.28-2.41-4.28-5.38,1.92-5.4,4.28-5.4Z"/>
        <path id="path3256" class="cls-6" d="m366.58,35.62c-4.69,0-8.71,3.02-10.4,7.3l-12,3.21,11.21,2.74c.49,4.28,3.15,7.86,6.79,9.48v3.05c-11.26,2.13-19.76,11.92-19.76,23.65,0,7.39,3.38,14.01,8.69,18.43l-4.84,6.47,4.15.4-3.99,6.37h7.68l-5,17.58,7.2-.04,1.57,26.51c-13.14-.3-23.05,18.99,8.75,2.06,12.77,12.85,24.44,7.13,7.98-1.59l1.67-27.06,6.29-.04-3.59-17.42h6.75l-3.99-6.39,3.99-.38-4.25-5.69c5.89-4.4,9.7-11.37,9.7-19.22,0-11.72-8.51-21.49-19.76-23.63v-3.31c3.33-1.68,5.75-5,6.29-8.97l12.04-3.47-12.72-2.6c-1.66-4.35-5.72-7.44-10.46-7.44Zm8.51,41.96c3.1,2.45,5.1,6.23,5.1,10.48s-2,8.03-5.1,10.48v-20.97Zm-17.2.52v19.92c-2.74-2.45-4.48-6-4.48-9.96s1.74-7.51,4.48-9.96Z"/>
        <path id="path3901" class="cls-11" d="m106.64,157.14l7.44,11.27c-18.26,24.25-36.29,20.09-52.75-.68l7.44-12.85,37.88,2.25Z"/>
        <path id="path3903" class="cls-11" d="m111.14,164.5c-16.06,9.18-34.44,6.74-47.34-2.11"/>
        <path id="path3905" class="cls-11" d="m83.87,160.52l-2.25,9.24"/>
        <path id="path3907" class="cls-11" d="m95.03,169.82l-1.92-8.68"/>
        <path id="path3535" class="cls-5" d="m79.13,160.29c-12.59,9.08-25.4,18.85-40.35,35.62l.9,10.6-2.71-4.06-1.58,2.03-1.35-5.64-3.83.9v-4.73l-6.09-.45.9-2.25h-3.83l11.72-2.03c10.58-12.69,22.33-23.45,34.72-33.14l11.5,3.16Z"/>
        <path id="path3538" class="cls-10" d="m50.72,172.24l2.25,8.34"/>
        <path id="path3540" class="cls-1" d="m60.7,163.5l2.36,9.13"/>
        <path id="path3542" class="cls-10" d="m73.04,164.12l-2.25-6.09"/>
        <path id="path3544" class="cls-10" d="m44.64,188.92l-3.16-7.44"/>
        <path id="path3546" class="cls-10" d="m39,196.14c-1.13-1.13-5.86-6.09-5.86-6.09"/>
        <path id="path3548" class="cls-5" d="m96.94,159.39c45.09,49.38,64.66,40.27,85.22,27.73l-16.46-.68c-24.63,9.02-45.96-18.83-57.94-29.31l-10.82,2.25Z"/>
        <path id="path3550" class="cls-9" d="m102.8,165.48c9.24-4.06,9.69-4.06,9.69-4.06"/>
        <path id="path3552" class="cls-9" d="m120.84,169.76l-9.92,3.83"/>
        <path id="path3554" class="cls-9" d="m128.73,176.52l-8.34,5.41"/>
        <path id="path3556" class="cls-9" d="m137.52,183.51l-6.99,4.74"/>
        <path id="path3558" class="cls-9" d="m147.44,187.34l-6.31,6.54"/>
        <path id="path3560" class="cls-9" d="m156.88,188.5l-4,8.28"/>
        <path id="path3562" class="cls-9" d="m166.15,194.11l-.68-6.99"/>
        <path id="path3601" class="cls-5" d="m299.17,177.43c3.03-2.83,26.4-23.5,49.82,3.61,7.04,8.14,18.66,7.77,25.48,4.96h17.81c-16.55,9.83-31.09,18.92-55.69-3.16-13.82-12.41-20.25-4.83-20.25-4.83l-17.18-.58Z"/>
        <path id="path3625" class="cls-5" d="m390.7,177.55s3.66-.55,21.12,0c4.02-2.45,9.25-3.56,21.94,5.51,10.55,7.54,27.12,24.53,49.1,24.24,14.4-.19,33.57-8.85,47.92-23.22,6.2-6.21,20.09-29.99,21.64-45.37l-6.84-8.62c-2.05,28.18-34.45,73.4-68.31,67.18-15.42-2.83-41.74-24.88-50.95-27.96l-16.46-.23c-6.81.22-13.96,5.51-19.16,8.47Z"/>
        <path id="path3605" class="cls-9" d="m313.6,169.53l.45,7.89"/>
        <path id="path3607" class="cls-9" d="m321.26,175.85l1.35-9.24"/>
        <path id="path3611" class="cls-9" d="m328.7,177.65l6.31-7.21"/>
        <path id="path3613" class="cls-9" d="m336.82,183.06l8.57-6.09"/>
        <path id="path3615" class="cls-9" d="m353.95,183.96l-6.99,5.64"/>
        <path id="path3617" class="cls-9" d="m358.69,195.69l5.19-8.34"/>
        <path id="path3619" class="cls-9" d="m371.54,186.89l.23,9.47"/>
        <path id="path3623" class="cls-9" d="m380.1,185.77l.45,5.86"/>
        <path id="path3629" class="cls-14" d="m406.93,169.98c.27-.07.22,3.21.22,4.06v3.61"/>
        <path id="path3631" class="cls-14" d="m415.79,168.63l-2.25,7.44"/>
        <path id="path3635" class="cls-19" d="m426.43,170.1l-5.04,6.13"/>
        <path id="path3637" class="cls-14" d="m436.24,174.95l-6.76,4.73"/>
        <path id="path3639" class="cls-14" d="m444.13,179.68l-6.54,5.86"/>
        <path id="path3641" class="cls-14" d="m452.92,185.99l-7.67,5.19"/>
        <path id="path3645" class="cls-3" d="m454.82,197.85l6.88-6.32"/>
        <path id="path3647" class="cls-14" d="m471.41,195.01l-6.09,8.57"/>
        <path id="path3651" class="cls-14" d="m476.14,206.06l5.64-8.12"/>
        <path id="path3657" class="cls-14" d="m492.38,196.14l-2.93,10.15"/>
        <path id="path3659" class="cls-14" d="m504.55,192.3l-.68,9.7"/>
        <path id="path3663" class="cls-14" d="m514.92,185.09l3.06,8.96"/>
        <path id="path3665" class="cls-4" d="m524.58,176.94l4.41,7.87"/>
        <path id="path3667" class="cls-14" d="m537.24,174.27l-5.19-8.12"/>
        <path id="path3669" class="cls-14" d="m543.55,161.87l-5.41-6.31"/>
        <path id="path3673" class="cls-14" d="m543.33,145.41l6.01,4.25"/>
        <path id="path3853" class="cls-16" d="m551.99,109.73c5.41,8.08,8.15,11.82,19.77,22.48-2.09-.41-3.84-1.05-5.39-1.82-1.55-.78-2.9-2.8-4.18-3.76,1.77,3.13,3.02,6.27,3.51,9.4-2.44-2.28-4.48-4.16-7.33-6.85,2.03,4.83,1.39,6.3,1.91,9.25-6.26-5.92-11.9-12.05-15.62-18.81l7.33-9.88Z"/>
        <path id="path3855" class="cls-18" d="m560.1,119.48l-12.86.91"/>
        <path id="path3861" class="cls-18" d="m565.53,126.06l-12.25,4.01"/>
        <path id="path3865" class="cls-5" d="m550.61,94.76c3.37-1.66,8.05,4.94,4.62,8.93-3.82,4.46-9.12,18.57-.8,32.04,2.73,4.41-3.55,8.61-9.09,1.59-8.66-10.97-4.09-37.96,5.26-42.56Z"/>
        <path id="path3867" class="cls-18" d="m546.31,98.75l6.85,7.33"/>
        <path id="path3869" class="cls-18" d="m549.97,115.33l-7.17-4.3"/>
        <path id="path3871" class="cls-17" d="m550.42,126.61c-.68-.16-8.71-2.01-8.71-2.01"/>
        <path id="path3873" class="cls-18" d="m553,133.98l-9.41-.48"/>
        <path id="path3485" class="cls-7" d="m88.83,55.48c-23.89,0-43.72,17-47.38,39.22h94.77c-3.66-22.22-23.49-39.22-47.38-39.22Z"/>
        <path id="path3510" class="cls-12" d="m44.86,83.64c29.2-4.94,60.45-4.91,88.19,1.19,1.6,2.44,2.09,5.44,2.89,8.28l-93.79-.45c.29-3.01.65-6.01,2.71-9.02Z"/>
        <path id="path3502" class="cls-13" d="m11.61,101.45c66.12,13.75,123.72,10.93,152.74-1.35-44.71-20.22-122.85-16.89-152.74,1.35Z"/>
        <path id="path3514" class="cls-15" d="m72.59,148.79l-5.64,8.12c14.05,4.37,28.78,4.9,42.83.23l-4.96-9.24-32.24.9Z"/>
        <path id="path3516" class="cls-15" d="m84.77,160.52l.45-10.15"/>
        <path id="path3518" class="cls-15" d="m92.43,160.52l.23-9.7"/>
        <path id="path3520" class="cls-15" d="m100.32,151.27l2.03,8.34"/>
        <path id="path3522" class="cls-15" d="m74.85,159.16l2.93-9.69"/>
        <path id="path3483" class="cls-11" d="m41.03,103.48c2.3-7.17,12.76-9.54,47.79-9.87,35.04-.32,46.9,1.66,48.25,8.74,1.92,10.11-7.04,50.73-48.25,50.73s-50.71-40.54-47.79-49.6Z"/>
        <path id="path3504" class="cls-24" d="m82.51,119.71c0,8.34-6.76,15.1-15.1,15.1s-15.11-6.76-15.11-15.1,6.76-15.1,15.11-15.1,15.1,6.76,15.1,15.1Z"/>
        <path id="path3506" class="cls-24" d="m125.35,119.71c0,8.34-6.76,15.1-15.1,15.1s-15.1-6.76-15.1-15.1,6.76-15.1,15.1-15.1,15.1,6.76,15.1,15.1Z"/>
        <path id="path3508" class="cls-24" d="m94.91,138.65c0,3.36-2.72,6.09-6.09,6.09s-6.09-2.73-6.09-6.09,2.73-6.09,6.09-6.09,6.09,2.73,6.09,6.09h0Z"/>
      </g>
    </g>
  </g>
  <g id="text2490" class="cls-23">
    <text class="cls-22" transform="translate(573.76 194.89)"><tspan x="0" y="0">TM</tspan></text>
  </g>
</svg>